<?xml version="1.0" encoding="utf-8"?>
<!-- Generator: Adobe Illustrator 16.0.0, SVG Export Plug-In . SVG Version: 6.00 Build 0)  -->
<!DOCTYPE svg PUBLIC "-//W3C//DTD SVG 1.1//EN" "http://www.w3.org/Graphics/SVG/1.1/DTD/svg11.dtd">
<svg version="1.1" id="Layer_1" xmlns="http://www.w3.org/2000/svg" xmlns:xlink="http://www.w3.org/1999/xlink" x="0px" y="0px"
	 width="256px" height="256px" viewBox="0 0 256 256" enable-background="new 0 0 256 256" xml:space="preserve">
<g id="Layer_2">
	<rect fill="#C91E60" width="256" height="256"/>
</g>
<g id="Layer_5">
	<g enable-background="new    ">
		<path fill="#FFFFFF" d="M69.55,78.188V49.656h9.748c0.792,0,1.572,0.02,2.338,0.059c0.766,0.04,1.519,0.133,2.259,0.277
			c0.739,0.146,1.459,0.364,2.16,0.654c0.699,0.291,1.38,0.674,2.041,1.149c0.951,0.688,1.73,1.525,2.338,2.516
			c0.607,0.991,1.09,2.035,1.447,3.131c0.356,1.097,0.607,2.206,0.753,3.329c0.145,1.123,0.218,2.159,0.218,3.11
			s-0.06,1.916-0.178,2.893c-0.119,0.979-0.311,1.936-0.575,2.873c-0.264,0.938-0.614,1.837-1.05,2.695
			c-0.436,0.858-0.984,1.645-1.645,2.357c-0.661,0.74-1.38,1.334-2.16,1.783s-1.599,0.8-2.457,1.05
			c-0.859,0.252-1.75,0.424-2.675,0.516c-0.925,0.093-1.862,0.139-2.813,0.139H69.55z M72.245,75.889h6.459
			c1.215,0,2.358-0.072,3.428-0.218c1.07-0.145,2.16-0.508,3.269-1.09c0.951-0.476,1.73-1.122,2.338-1.941
			c0.607-0.818,1.09-1.71,1.446-2.675c0.356-0.964,0.607-1.975,0.753-3.031c0.145-1.057,0.218-2.074,0.218-3.052
			c0-1.03-0.066-2.08-0.198-3.15c-0.133-1.069-0.383-2.087-0.753-3.051c-0.371-0.965-0.872-1.85-1.506-2.655
			c-0.634-0.806-1.454-1.473-2.457-2.001c-0.846-0.449-1.85-0.739-3.012-0.872c-1.163-0.132-2.338-0.198-3.527-0.198h-6.459V75.889z
			"/>
		<path fill="#FFFFFF" d="M99.27,68.479c0,1.109,0.145,2.16,0.436,3.15c0.291,0.991,0.719,1.85,1.288,2.576
			c0.568,0.727,1.288,1.308,2.16,1.743c0.872,0.437,1.875,0.654,3.012,0.654c1.559,0,2.893-0.409,4.002-1.229
			c1.11-0.818,1.849-1.981,2.219-3.487h2.655c-0.291,0.978-0.674,1.883-1.149,2.715s-1.07,1.559-1.783,2.179
			c-0.713,0.621-1.559,1.104-2.536,1.447c-0.978,0.343-2.114,0.515-3.408,0.515c-1.638,0-3.051-0.277-4.24-0.832
			c-1.189-0.555-2.167-1.313-2.933-2.278c-0.767-0.965-1.334-2.101-1.704-3.408c-0.37-1.308-0.555-2.715-0.555-4.221
			s0.218-2.919,0.654-4.24c0.436-1.32,1.056-2.477,1.863-3.467c0.805-0.991,1.789-1.77,2.952-2.338
			c1.162-0.568,2.483-0.853,3.962-0.853c2.827,0,5.046,0.971,6.658,2.913c1.611,1.941,2.403,4.762,2.377,8.46H99.27z
			 M112.664,66.497c0-1.003-0.139-1.947-0.416-2.833c-0.277-0.885-0.688-1.65-1.229-2.299c-0.542-0.646-1.222-1.162-2.041-1.545
			c-0.819-0.383-1.757-0.575-2.814-0.575s-1.988,0.198-2.793,0.595c-0.806,0.396-1.493,0.925-2.061,1.585
			c-0.568,0.661-1.024,1.427-1.367,2.299c-0.344,0.872-0.568,1.797-0.674,2.773H112.664z"/>
		<path fill="#FFFFFF" d="M117.657,57.66h2.576l6.657,17.595l6.658-17.595h2.575l-7.965,20.527h-2.655L117.657,57.66z"/>
		<path fill="#FFFFFF" d="M139.889,53.183v-3.526h2.615v3.526H139.889z M140.008,78.188V57.66h2.377v20.527H140.008z"/>
		<path fill="#FFFFFF" d="M162.99,64.12c-0.423-1.532-1.149-2.728-2.18-3.587c-1.03-0.857-2.338-1.288-3.923-1.288
			c-1.216,0-2.259,0.252-3.131,0.753c-0.872,0.503-1.585,1.17-2.14,2.002s-0.965,1.77-1.229,2.813s-0.396,2.094-0.396,3.15
			c0,1.083,0.125,2.14,0.377,3.17c0.25,1.03,0.653,1.955,1.209,2.774c0.555,0.818,1.268,1.473,2.139,1.961
			c0.873,0.489,1.929,0.733,3.171,0.733c1.77,0,3.19-0.488,4.26-1.467c1.069-0.977,1.75-2.324,2.041-4.042h2.536
			c-0.212,1.137-0.549,2.174-1.011,3.111s-1.057,1.743-1.783,2.417c-0.728,0.674-1.592,1.195-2.596,1.565s-2.153,0.555-3.447,0.555
			c-1.639,0-3.052-0.277-4.24-0.832s-2.167-1.313-2.933-2.278c-0.767-0.965-1.334-2.106-1.703-3.428
			c-0.371-1.321-0.556-2.734-0.556-4.24c0-1.427,0.204-2.794,0.614-4.102s1.011-2.463,1.803-3.468
			c0.793-1.004,1.777-1.803,2.953-2.397c1.175-0.594,2.529-0.892,4.062-0.892c2.378,0,4.3,0.568,5.766,1.704
			c1.466,1.137,2.384,2.906,2.754,5.311H162.99z"/>
		<path fill="#FFFFFF" d="M171.946,68.479c0,1.109,0.146,2.16,0.437,3.15c0.29,0.991,0.719,1.85,1.287,2.576s1.288,1.308,2.16,1.743
			c0.871,0.437,1.875,0.654,3.012,0.654c1.559,0,2.893-0.409,4.002-1.229c1.109-0.818,1.85-1.981,2.219-3.487h2.656
			c-0.291,0.978-0.674,1.883-1.15,2.715c-0.475,0.832-1.069,1.559-1.783,2.179c-0.713,0.621-1.559,1.104-2.535,1.447
			c-0.979,0.343-2.114,0.515-3.408,0.515c-1.639,0-3.052-0.277-4.24-0.832c-1.189-0.555-2.166-1.313-2.933-2.278
			s-1.335-2.101-1.704-3.408c-0.37-1.308-0.555-2.715-0.555-4.221s0.218-2.919,0.654-4.24c0.436-1.32,1.056-2.477,1.862-3.467
			c0.806-0.991,1.789-1.77,2.952-2.338c1.162-0.568,2.482-0.853,3.963-0.853c2.826,0,5.045,0.971,6.657,2.913
			c1.61,1.941,2.403,4.762,2.378,8.46H171.946z M185.34,66.497c0-1.003-0.139-1.947-0.416-2.833
			c-0.277-0.885-0.688-1.65-1.229-2.299c-0.541-0.646-1.222-1.162-2.04-1.545c-0.819-0.383-1.757-0.575-2.813-0.575
			s-1.988,0.198-2.794,0.595s-1.493,0.925-2.061,1.585c-0.568,0.661-1.024,1.427-1.367,2.299c-0.344,0.872-0.568,1.797-0.674,2.773
			H185.34z"/>
	</g>
	<g enable-background="new    ">
		<path fill="#FFFFFF" d="M90.85,121.936h0.08l6.221-24.727h2.774l-7.489,28.531h-2.972l-6.618-25.203h-0.08l-6.618,25.203h-2.972
			l-7.371-28.531H68.5l6.142,24.727h0.08l6.618-24.727h3.012L90.85,121.936z"/>
		<path fill="#FFFFFF" d="M103.57,100.735v-3.526h2.616v3.526H103.57z M103.689,125.74v-20.527h2.377v20.527H103.689z"/>
		<path fill="#FFFFFF" d="M127.98,97.209h2.377v28.531h-2.377v-3.606h-0.079c-0.344,0.688-0.787,1.288-1.328,1.804
			c-0.542,0.515-1.136,0.944-1.783,1.287c-0.647,0.344-1.314,0.607-2.001,0.793c-0.688,0.185-1.361,0.277-2.021,0.277
			c-1.665,0-3.078-0.277-4.24-0.832c-1.163-0.555-2.12-1.313-2.873-2.278s-1.302-2.106-1.645-3.428
			c-0.344-1.321-0.515-2.734-0.515-4.24c0-1.427,0.185-2.8,0.555-4.121c0.37-1.321,0.931-2.478,1.684-3.468s1.704-1.783,2.853-2.378
			c1.149-0.594,2.503-0.892,4.062-0.892c1.453,0,2.846,0.324,4.181,0.971c1.334,0.648,2.384,1.605,3.15,2.873V97.209z
			 M127.98,115.397c0-1.162-0.159-2.265-0.476-3.309s-0.772-1.955-1.367-2.734c-0.594-0.779-1.321-1.4-2.179-1.862
			c-0.859-0.462-1.83-0.694-2.913-0.694c-1.242,0-2.312,0.245-3.21,0.733c-0.898,0.489-1.638,1.156-2.219,2.001
			c-0.582,0.847-1.004,1.83-1.268,2.953c-0.264,1.123-0.37,2.331-0.317,3.625c0,1.295,0.178,2.438,0.535,3.428
			c0.357,0.991,0.852,1.83,1.486,2.517c0.634,0.688,1.373,1.209,2.219,1.565c0.845,0.356,1.77,0.535,2.774,0.535
			c1.109,0,2.1-0.225,2.972-0.674c0.872-0.449,1.598-1.063,2.18-1.843c0.581-0.778,1.023-1.704,1.328-2.773
			C127.828,117.795,127.98,116.64,127.98,115.397z"/>
		<path fill="#FFFFFF" d="M152.192,105.213h2.378v18.546c0,1.374-0.139,2.688-0.416,3.943c-0.277,1.254-0.773,2.357-1.486,3.309
			s-1.691,1.71-2.933,2.278s-2.84,0.853-4.795,0.853c-1.506,0-2.8-0.192-3.884-0.575c-1.083-0.383-1.968-0.865-2.654-1.446
			c-0.688-0.581-1.209-1.222-1.565-1.922s-0.549-1.354-0.575-1.962h2.537c0.184,0.767,0.475,1.394,0.871,1.883
			c0.396,0.488,0.865,0.872,1.407,1.149c0.541,0.277,1.142,0.469,1.803,0.574c0.66,0.105,1.348,0.158,2.061,0.158
			c1.611,0,2.905-0.277,3.884-0.832c0.977-0.555,1.717-1.281,2.219-2.18s0.826-1.915,0.971-3.051
			c0.146-1.136,0.205-2.299,0.179-3.487c-0.767,1.268-1.816,2.226-3.15,2.873c-1.335,0.646-2.728,0.971-4.181,0.971
			c-1.559,0-2.912-0.297-4.062-0.892c-1.148-0.595-2.1-1.387-2.853-2.378c-0.753-0.99-1.314-2.146-1.685-3.467
			c-0.369-1.321-0.555-2.695-0.555-4.121c0-1.506,0.172-2.919,0.516-4.24c0.343-1.321,0.892-2.463,1.645-3.428
			s1.71-1.724,2.873-2.279c1.162-0.555,2.576-0.832,4.24-0.832c0.66,0,1.334,0.093,2.021,0.277c0.686,0.186,1.354,0.45,2,0.793
			c0.647,0.344,1.242,0.779,1.783,1.308s0.984,1.123,1.328,1.783h0.079V105.213z M152.192,115.556c0-1.241-0.152-2.397-0.456-3.467
			c-0.304-1.07-0.746-1.995-1.327-2.774c-0.581-0.778-1.308-1.393-2.18-1.843c-0.872-0.448-1.862-0.674-2.972-0.674
			c-1.004,0-1.929,0.179-2.773,0.535c-0.847,0.357-1.586,0.879-2.22,1.565c-0.634,0.688-1.13,1.525-1.486,2.517
			c-0.356,0.99-0.534,2.134-0.534,3.428c-0.054,1.295,0.053,2.503,0.316,3.626s0.687,2.106,1.268,2.952
			c0.582,0.846,1.321,1.513,2.22,2.001c0.897,0.489,1.968,0.733,3.21,0.733c1.082,0,2.054-0.231,2.912-0.693s1.586-1.083,2.18-1.862
			c0.595-0.779,1.051-1.69,1.367-2.734S152.192,116.719,152.192,115.556z"/>
		<path fill="#FFFFFF" d="M162.02,116.031c0,1.109,0.145,2.16,0.436,3.15c0.291,0.991,0.72,1.85,1.288,2.576
			c0.567,0.727,1.288,1.308,2.159,1.743c0.873,0.437,1.876,0.654,3.012,0.654c1.559,0,2.894-0.409,4.003-1.229
			c1.11-0.818,1.849-1.981,2.22-3.487h2.654c-0.291,0.978-0.674,1.883-1.148,2.715c-0.477,0.832-1.07,1.559-1.783,2.179
			c-0.714,0.621-1.56,1.104-2.537,1.447c-0.977,0.343-2.113,0.515-3.408,0.515c-1.638,0-3.051-0.277-4.239-0.832
			s-2.167-1.313-2.933-2.278c-0.767-0.965-1.334-2.101-1.704-3.408s-0.555-2.715-0.555-4.221s0.218-2.919,0.653-4.24
			c0.437-1.32,1.057-2.477,1.863-3.467c0.805-0.991,1.789-1.77,2.952-2.338c1.162-0.568,2.483-0.853,3.962-0.853
			c2.827,0,5.047,0.971,6.658,2.913c1.611,1.941,2.403,4.762,2.377,8.46H162.02z M175.414,114.05c0-1.003-0.139-1.947-0.416-2.833
			c-0.277-0.885-0.688-1.65-1.229-2.299c-0.542-0.646-1.223-1.162-2.041-1.545c-0.819-0.383-1.758-0.575-2.814-0.575
			s-1.987,0.198-2.793,0.595c-0.807,0.396-1.492,0.925-2.061,1.585c-0.568,0.661-1.024,1.427-1.367,2.299
			c-0.344,0.872-0.568,1.797-0.674,2.773H175.414z"/>
		<path fill="#FFFFFF" d="M189.799,125.819c-0.291,0.053-0.674,0.146-1.15,0.277c-0.475,0.132-1.004,0.198-1.584,0.198
			c-1.189,0-2.095-0.297-2.715-0.892c-0.621-0.595-0.932-1.657-0.932-3.189v-15.02h-2.893v-1.981h2.893v-5.706h2.378v5.706h3.844
			v1.981h-3.844v14.068c0,0.502,0.013,0.938,0.04,1.308c0.025,0.37,0.105,0.674,0.237,0.911s0.337,0.41,0.614,0.516
			s0.667,0.158,1.169,0.158c0.317,0,0.64-0.026,0.972-0.079c0.329-0.053,0.653-0.119,0.971-0.198V125.819z"/>
	</g>
</g>
<g id="Layer_4">
	<g>
		<path fill="none" d="M153.006,225.923c-13.807,0-25-11.192-25-25c0-13.807,11.193-25,25-25H256V0H0v256h256v-30.077H153.006z"/>
		<path fill="#FFFFFF" d="M128.006,200.923c0,13.808,11.193,25,25,25H256v-50H153.006
			C139.199,175.923,128.006,187.116,128.006,200.923z"/>
	</g>
</g>
<g id="Layer_6">
	<g>
		<path fill="#C91E60" d="M166.129,200.07c0,1.252-0.234,2.425-0.707,3.521c-0.472,1.099-1.121,2.06-1.945,2.886
			c-0.826,0.824-1.787,1.473-2.884,1.944c-1.098,0.472-2.27,0.707-3.521,0.707c-1.086,0-2.104-0.178-3.061-0.53
			c-0.955-0.354-1.82-0.837-2.601-1.449v7.074c0,0.473-0.165,0.871-0.495,1.202c-0.33,0.33-0.73,0.496-1.202,0.496
			c-0.473,0-0.873-0.166-1.202-0.496c-0.332-0.331-0.494-0.729-0.494-1.202v-14.15c0-1.252,0.234-2.424,0.705-3.521
			c0.473-1.097,1.118-2.058,1.946-2.884c0.826-0.826,1.786-1.475,2.884-1.945c1.096-0.472,2.27-0.707,3.52-0.707
			c1.251,0,2.423,0.235,3.521,0.707c1.097,0.473,2.058,1.119,2.884,1.945c0.824,0.826,1.475,1.787,1.945,2.884
			C165.895,197.646,166.129,198.82,166.129,200.07 M162.732,200.07c0-0.778-0.147-1.51-0.441-2.191
			c-0.297-0.686-0.702-1.286-1.221-1.805c-0.52-0.52-1.12-0.926-1.805-1.221c-0.686-0.295-1.416-0.442-2.193-0.442
			c-0.778,0-1.51,0.147-2.193,0.442c-0.686,0.295-1.285,0.701-1.805,1.221c-0.52,0.519-0.926,1.119-1.221,1.805
			c-0.295,0.684-0.441,1.413-0.441,2.191c0,0.779,0.146,1.511,0.441,2.193c0.295,0.685,0.701,1.286,1.221,1.805
			c0.52,0.52,1.119,0.927,1.805,1.221c0.686,0.298,1.415,0.441,2.193,0.441c0.777,0,1.509-0.145,2.193-0.441
			c0.685-0.294,1.285-0.701,1.805-1.221c0.519-0.519,0.924-1.12,1.221-1.805C162.585,201.581,162.732,200.85,162.732,200.07"/>
		<path fill="#C91E60" d="M167.827,200.07c0-1.25,0.235-2.424,0.707-3.52c0.472-1.097,1.12-2.058,1.946-2.884
			c0.824-0.826,1.785-1.474,2.883-1.946c1.098-0.471,2.271-0.705,3.521-0.705c1.249,0,2.425,0.234,3.519,0.705
			c1.098,0.473,2.059,1.12,2.885,1.946c0.824,0.826,1.475,1.787,1.945,2.884c0.472,1.096,0.707,2.27,0.707,3.52
			c0,1.252-0.235,2.425-0.707,3.521c-0.473,1.099-1.121,2.06-1.945,2.886c-0.826,0.824-1.787,1.473-2.885,1.944
			c-1.094,0.472-2.27,0.707-3.519,0.707c-1.251,0-2.424-0.235-3.521-0.707c-1.098-0.473-2.059-1.12-2.883-1.944
			c-0.826-0.826-1.476-1.787-1.946-2.886C168.062,202.495,167.827,201.322,167.827,200.07 M171.225,200.07
			c0,0.779,0.146,1.511,0.44,2.193c0.297,0.685,0.702,1.286,1.221,1.805c0.519,0.52,1.121,0.927,1.806,1.221
			c0.684,0.298,1.414,0.441,2.193,0.441c0.776,0,1.508-0.145,2.191-0.441c0.686-0.294,1.285-0.701,1.806-1.221
			c0.519-0.519,0.925-1.12,1.22-1.805c0.297-0.684,0.443-1.414,0.443-2.193c0-0.778-0.146-1.51-0.443-2.191
			c-0.295-0.686-0.701-1.286-1.22-1.805c-0.521-0.52-1.12-0.926-1.806-1.221c-0.684-0.295-1.415-0.442-2.191-0.442
			c-0.779,0-1.511,0.147-2.193,0.442c-0.685,0.295-1.287,0.701-1.806,1.221c-0.519,0.519-0.924,1.119-1.221,1.805
			C171.37,198.562,171.225,199.292,171.225,200.07"/>
		<path fill="#C91E60" d="M185.092,215.921c-0.472,0-0.873-0.166-1.203-0.496c-0.328-0.331-0.494-0.729-0.494-1.202
			c0-0.472,0.166-0.873,0.494-1.203c0.33-0.33,0.731-0.494,1.203-0.494c0.944,0,1.746-0.33,2.405-0.99
			c0.66-0.662,0.991-1.463,0.991-2.406v-16.415c0-0.471,0.164-0.871,0.496-1.202c0.326-0.33,0.729-0.494,1.201-0.494
			c0.472,0,0.875,0.164,1.203,0.494c0.33,0.331,0.494,0.731,0.494,1.202v16.415c0,0.943-0.177,1.827-0.529,2.653
			c-0.354,0.825-0.838,1.545-1.451,2.157s-1.332,1.099-2.157,1.451C186.919,215.743,186.036,215.921,185.092,215.921 M188.205,187.9
			c0-0.541,0.195-1.008,0.583-1.396c0.389-0.39,0.854-0.584,1.397-0.584s1.008,0.194,1.396,0.584s0.584,0.854,0.584,1.396
			c0,0.543-0.195,1.011-0.584,1.398c-0.391,0.389-0.854,0.583-1.396,0.583s-1.01-0.194-1.397-0.583
			C188.4,188.911,188.205,188.443,188.205,187.9"/>
		<path fill="#C91E60" d="M194.432,200.07c0-1.25,0.234-2.424,0.707-3.52c0.473-1.097,1.118-2.058,1.946-2.884
			c0.824-0.826,1.783-1.474,2.883-1.946c1.097-0.471,2.271-0.705,3.519-0.705c1.25,0,2.426,0.234,3.522,0.705
			c1.097,0.473,2.056,1.12,2.884,1.946c0.824,0.826,1.473,1.787,1.943,2.884c0.473,1.096,0.708,2.27,0.708,3.52
			c0,1.252-0.235,2.425-0.708,3.521c-0.473,1.099-1.119,2.06-1.943,2.886c-0.828,0.824-1.787,1.473-2.884,1.944
			c-1.098,0.472-2.272,0.707-3.522,0.707c-1.248,0-2.422-0.235-3.519-0.707c-1.1-0.473-2.059-1.12-2.883-1.944
			c-0.828-0.826-1.476-1.787-1.946-2.886C194.666,202.495,194.432,201.322,194.432,200.07 M197.827,200.07
			c0,0.779,0.146,1.511,0.442,2.193c0.295,0.685,0.701,1.286,1.219,1.805c0.521,0.52,1.121,0.927,1.806,1.221
			c0.685,0.298,1.415,0.441,2.192,0.441c0.779,0,1.511-0.145,2.193-0.441c0.684-0.294,1.284-0.701,1.803-1.221
			c0.52-0.519,0.927-1.12,1.225-1.805c0.294-0.684,0.439-1.414,0.439-2.193c0-0.778-0.146-1.51-0.439-2.191
			c-0.298-0.686-0.705-1.286-1.225-1.805c-0.519-0.52-1.119-0.926-1.803-1.221s-1.414-0.442-2.193-0.442
			c-0.777,0-1.51,0.147-2.192,0.442c-0.685,0.295-1.285,0.701-1.806,1.221c-0.518,0.519-0.924,1.119-1.219,1.805
			C197.975,198.562,197.827,199.292,197.827,200.07"/>
		<path fill="#353E44" d="M213.941,207.714c0.389,0,0.705,0.317,0.705,0.707s-0.316,0.707-0.705,0.707
			c-0.391,0-0.709-0.317-0.709-0.707S213.552,207.714,213.941,207.714"/>
		<path fill="#353E44" d="M223.846,208.562c0,0.317-0.246,0.564-0.564,0.564c-0.319,0-0.568-0.247-0.568-0.564v-4.528
			c0-1.556-1.271-2.83-2.828-2.83c-1.559,0-2.83,1.274-2.83,2.83v4.528c0,0.317-0.246,0.564-0.564,0.564
			c-0.319,0-0.566-0.247-0.566-0.564v-4.528c0-2.192,1.77-3.962,3.963-3.962c1.432,0,2.704,0.777,3.396,1.929
			c0.688-1.149,1.944-1.929,3.396-1.929c2.192,0,3.963,1.77,3.963,3.962v4.528c0,0.317-0.25,0.564-0.566,0.564
			c-0.318,0-0.565-0.247-0.565-0.564v-4.528c0-1.556-1.274-2.83-2.829-2.83c-1.559,0-2.832,1.274-2.832,2.83v4.528H223.846z"/>
		<path fill="#353E44" d="M236.441,209.128c-2.494,0-4.528-2.034-4.528-4.526c0-2.494,2.034-4.528,4.528-4.528
			c2.492,0,4.524,2.034,4.524,4.528c0,0.317-0.248,0.564-0.563,0.564h-7.324c0.285,1.609,1.682,2.83,3.363,2.83h1.131
			c0.316,0,0.566,0.248,0.566,0.566c0,0.317-0.25,0.564-0.566,0.564L236.441,209.128L236.441,209.128z M233.078,204.034h6.705
			c-0.266-1.593-1.663-2.83-3.342-2.83C234.76,201.204,233.363,202.441,233.078,204.034"/>
	</g>
</g>
</svg>
